<svg width="264" height="172" viewBox="0 0 264 172" fill="none" xmlns="http://www.w3.org/2000/svg">
<g clip-path="url(#clip0)">
<path d="M9.75672 122.03C9.75672 120.666 9.24327 119.471 8.38747 118.618C7.53168 117.766 6.33357 117.254 4.9643 117.254C2.22576 117.254 0.171874 119.471 0.171874 122.03C0.171875 124.76 2.39692 126.807 4.9643 126.807C7.53168 126.977 9.75672 124.76 9.75672 122.03Z" fill="white" fill-opacity="0.1"/>
<path d="M99.6133 122.029C99.6133 124.759 101.838 126.806 104.406 126.806C107.144 126.806 109.198 124.588 109.198 122.029C109.198 120.665 108.685 119.471 107.829 118.618C106.973 117.765 105.775 117.253 104.406 117.253C101.667 117.253 99.6133 119.471 99.6133 122.029Z" fill="white" fill-opacity="0.08"/>
<path d="M59.3934 122.03C59.3934 120.666 58.88 119.471 58.0242 118.618C57.1684 117.766 55.9703 117.254 54.601 117.254C51.8625 117.254 49.8086 119.471 49.8086 122.03C49.8086 124.76 52.0336 126.807 54.601 126.807C57.3396 126.977 59.3934 124.76 59.3934 122.03Z" fill="white" fill-opacity="0.2"/>
<path d="M49.8086 77.5072C49.8086 80.2366 52.0336 82.2837 54.601 82.2837C57.3396 82.2837 59.3934 80.066 59.3934 77.5072C59.3934 76.1425 58.88 74.9484 58.0242 74.0955C57.1684 73.2425 55.9703 72.7308 54.601 72.7308C52.0336 72.5602 49.8086 74.7778 49.8086 77.5072Z" fill="white" fill-opacity="0.1"/>
<path d="M49.8086 32.724C49.8086 35.4534 52.0336 37.5005 54.601 37.5005C57.3396 37.5005 59.3934 35.2828 59.3934 32.724C59.3934 31.3593 58.88 30.1652 58.0242 29.3122C57.1684 28.4593 55.9703 27.9475 54.601 27.9475C52.0336 27.777 49.8086 29.9946 49.8086 32.724Z" fill="white" fill-opacity="0.08"/>
<path d="M-6.26359e-07 77.5067C-2.6844e-07 80.2361 2.22504 82.2832 4.79242 82.2832C7.53097 82.2832 9.58495 80.0655 9.58495 77.5067C9.58495 76.142 9.07139 74.9479 8.2156 74.095C7.35981 73.242 6.16169 72.7303 4.79242 72.7303C2.22504 72.5597 -9.84278e-07 74.7773 -6.26359e-07 77.5067Z" fill="#00D4FF" fill-opacity="0.2"/>
<path d="M109.198 77.5067C109.198 76.142 108.685 74.9479 107.829 74.095C106.973 73.242 105.775 72.7303 104.406 72.7303C101.667 72.7303 99.6133 74.9479 99.6133 77.5067C99.6133 80.2361 101.838 82.2832 104.406 82.2832C107.144 82.2832 109.198 80.0655 109.198 77.5067Z" fill="white" fill-opacity="0.2"/>
<path d="M49.8086 166.724C49.8086 169.453 52.0336 171.5 54.601 171.5C57.3396 171.5 59.3934 169.283 59.3934 166.724C59.3934 165.359 58.88 164.165 58.0242 163.312C57.1684 162.459 55.9703 161.948 54.601 161.948C52.0336 161.948 49.8086 163.995 49.8086 166.724Z" fill="white" fill-opacity="0.1"/>
</g>
<g clip-path="url(#clip1)">
<path d="M141.757 122.03C141.757 120.666 141.243 119.471 140.387 118.618C139.532 117.766 138.334 117.254 136.964 117.254C134.226 117.254 132.172 119.471 132.172 122.03C132.172 124.76 134.397 126.807 136.964 126.807C139.532 126.977 141.757 124.76 141.757 122.03Z" fill="white" fill-opacity="0.1"/>
<path d="M231.613 122.029C231.613 124.759 233.838 126.806 236.406 126.806C239.144 126.806 241.198 124.588 241.198 122.029C241.198 120.665 240.685 119.471 239.829 118.618C238.973 117.765 237.775 117.253 236.406 117.253C233.667 117.253 231.613 119.471 231.613 122.029Z" fill="white" fill-opacity="0.08"/>
<path d="M191.393 122.03C191.393 120.666 190.88 119.471 190.024 118.618C189.168 117.766 187.97 117.254 186.601 117.254C183.862 117.254 181.809 119.471 181.809 122.03C181.809 124.76 184.034 126.807 186.601 126.807C189.34 126.977 191.393 124.76 191.393 122.03Z" fill="white" fill-opacity="0.2"/>
<path d="M181.809 77.5072C181.809 80.2366 184.034 82.2837 186.601 82.2837C189.34 82.2837 191.393 80.066 191.393 77.5072C191.393 76.1425 190.88 74.9484 190.024 74.0955C189.168 73.2425 187.97 72.7308 186.601 72.7308C184.034 72.5602 181.809 74.7778 181.809 77.5072Z" fill="white" fill-opacity="0.1"/>
<path d="M181.809 32.724C181.809 35.4534 184.034 37.5005 186.601 37.5005C189.34 37.5005 191.393 35.2828 191.393 32.724C191.393 31.3593 190.88 30.1652 190.024 29.3122C189.168 28.4593 187.97 27.9475 186.601 27.9475C184.034 27.777 181.809 29.9946 181.809 32.724Z" fill="white" fill-opacity="0.08"/>
<path d="M132 77.5067C132 80.2361 134.225 82.2832 136.792 82.2832C139.531 82.2832 141.585 80.0655 141.585 77.5067C141.585 76.142 141.071 74.9479 140.216 74.095C139.36 73.242 138.162 72.7303 136.792 72.7303C134.225 72.5597 132 74.7773 132 77.5067Z" fill="#00D4FF" fill-opacity="0.2"/>
<path d="M241.198 77.5067C241.198 76.142 240.685 74.9479 239.829 74.095C238.973 73.242 237.775 72.7303 236.406 72.7303C233.667 72.7303 231.613 74.9479 231.613 77.5067C231.613 80.2361 233.838 82.2832 236.406 82.2832C239.144 82.2832 241.198 80.0655 241.198 77.5067Z" fill="white" fill-opacity="0.2"/>
<path d="M181.809 166.724C181.809 169.453 184.034 171.5 186.601 171.5C189.34 171.5 191.393 169.283 191.393 166.724C191.393 165.359 190.88 164.165 190.024 163.312C189.168 162.459 187.97 161.948 186.601 161.948C184.034 161.948 181.809 163.995 181.809 166.724Z" fill="white" fill-opacity="0.1"/>
</g>
<defs>
<clipPath id="clip0">
<rect width="171" height="132" fill="white" transform="translate(0 171.5) rotate(-90)"/>
</clipPath>
<clipPath id="clip1">
<rect width="171" height="132" fill="white" transform="translate(132 171.5) rotate(-90)"/>
</clipPath>
</defs>
</svg>
